PathFileType	4	(X/Y/Z)	C:\Users\WrightLab\Desktop\Jo\P2_Trial35.trc
DataRate	CameraRate	NumFrames	NumMarkers	Units	OrigDataRate	OrigDataStartFrame	OrigNumFrames
100.00	100.00	      19	19	mm	100.00	862	      1148
Frame#	Time	Headset_Front			Headset_Back			Headset_Left			Headset_Right			Left_Shoulder			Right_Shoulder			Sternum			C7			Left Elbow			Right Elbow			Left Wrist			Right Wrist			Left ASIS			Right ASIS			S2			Left Knee			Right Knee			Left Ankle			Right Ankle			
		X1	Y1	Z1	X2	Y2	Z2	X3	Y3	Z3	X4	Y4	Z4	X5	Y5	Z5	X6	Y6	Z6	X7	Y7	Z7	X8	Y8	Z8	X9	Y9	Z9	X10	Y10	Z10	X11	Y11	Z11	X12	Y12	Z12	X13	Y13	Z13	X14	Y14	Z14	X15	Y15	Z15	X16	Y16	Z16	X17	Y17	Z17	X18	Y18	Z18	X19	Y19	Z19	

862	8.610	-387.85162	1404.41833	21.13924	-364.56155	1671.00659	174.01552	-482.36847	1550.31897	139.78999	-275.45630	1498.31348	54.24417	-477.83893	1455.44238	324.24207	-199.34521	1410.24597	159.25079	-371.01904	1304.87769	213.49100	-267.96176	1446.25928	331.10867	-535.69745	1175.17078	462.89273	-85.19907	1090.23901	169.10416	-630.90033	1130.88953	329.80994	-95.58244	845.74768	102.73500	-309.61716	983.94775	206.52472	-357.51385	973.69952	323.90576	-239.95409	978.68597	478.54135	-543.51593	473.68930	391.17603	-83.82107	549.32697	316.91434	-660.39221	150.16431	356.66449	-112.44684	114.05182	345.21835	
863	8.620	-395.10410	1403.93091	17.96698	-371.22107	1670.38489	172.12074	-489.75494	1550.06543	137.54253	-281.93198	1497.52686	53.10657	-483.55084	1453.66907	322.00870	-206.13049	1409.16809	156.07336	-377.39038	1303.64722	211.01749	-274.32956	1444.91870	328.56738	-541.85321	1173.41296	460.06812	-91.90850	1089.59058	165.77870	-637.59839	1129.51526	327.16876	-102.35421	845.38147	97.75027	-316.05933	982.64716	204.39230	-364.62558	972.16345	321.36447	-245.84277	977.16901	476.08548	-550.67889	472.67029	388.77139	-87.36017	548.36273	313.70999	-668.94135	149.47162	354.26563	-112.45063	113.68929	345.38083	
864	8.630	-401.94485	1402.96741	16.08210	-377.46194	1669.47437	169.74260	-496.57089	1549.15771	135.36391	-289.26413	1496.71350	49.92230	-490.75977	1452.48169	319.46359	-213.53514	1408.39539	153.64447	-383.96863	1302.41077	208.28441	-280.96524	1443.78931	325.99841	-547.92902	1172.17749	457.27805	-98.58386	1088.77344	161.23357	-644.83301	1128.69116	324.89056	-109.33775	845.13275	92.61774	-322.45770	981.38312	201.42627	-372.17834	971.06860	317.09821	-251.66101	975.67499	472.98923	-558.05841	471.99005	386.21246	-91.09576	547.50140	311.77795	-677.20166	149.16446	352.28033	-111.89808	113.86616	345.04434	
865	8.640	-409.43442	1402.43933	12.78654	-384.42999	1668.15405	167.60188	-503.56430	1548.14319	133.01054	-296.14264	1496.18372	47.84034	-498.07056	1451.28674	317.34531	-220.59602	1407.25525	150.44617	-390.96002	1301.37317	205.65872	-288.26791	1442.83972	323.52811	-555.00037	1170.24817	454.63245	-105.44176	1088.28967	156.51221	-651.49860	1126.76880	321.85022	-115.74997	843.86011	87.03021	-329.12656	979.43658	198.44366	-377.81680	969.69623	314.46494	-258.19388	974.71564	469.44180	-564.64478	470.58179	383.49808	-95.16616	547.01434	308.87341	-685.37628	147.12314	350.42831	-112.66051	112.66837	344.68253	
866	8.650	-416.60251	1401.48560	10.58558	-391.44690	1667.02551	165.22299	-511.06479	1546.97839	130.98079	-303.66525	1494.39490	44.78915	-505.17487	1449.86865	314.56088	-227.15506	1406.00964	147.67612	-397.92441	1300.10364	203.06433	-294.97348	1441.60791	320.69934	-561.48865	1169.02966	451.66980	-112.34544	1087.02014	151.49953	-658.86194	1126.02417	319.07501	-123.51772	842.82776	82.86801	-335.55756	978.23883	195.32748	-385.56778	968.70825	310.81854	-264.26938	972.64752	466.54819	-571.48596	469.06467	381.00177	-99.04617	546.56549	306.55374	-693.55615	145.88548	349.07071	-111.88287	113.76479	343.83344	
867	8.660	-424.60117	1400.34656	7.29810	-399.14752	1665.85742	162.99341	-518.69379	1545.94922	128.70117	-311.27704	1493.54993	41.49813	-512.39026	1448.30908	312.19659	-235.30109	1405.41455	145.19009	-405.39752	1298.39282	199.64085	-301.87906	1440.03455	317.82843	-568.37231	1166.76172	449.04965	-119.63477	1086.51440	147.95107	-665.66449	1124.96631	316.08237	-130.13589	843.10199	76.91700	-342.92563	976.57971	191.67236	-393.62512	967.65692	308.12863	-271.23367	971.52838	463.03821	-578.51044	468.09885	378.92578	-103.70853	545.80225	303.34763	-701.40906	145.63419	348.00510				
868	8.670	-432.23349	1398.69080	5.36064	-407.01196	1664.18896	160.84706	-525.51007	1543.94604	126.18835	-319.08380	1492.67273	39.47620	-518.22668	1446.12183	309.51813	-242.70827	1404.22205	141.34781	-412.14764	1297.05835	197.45956	-309.01044	1438.51868	314.85434	-575.28632	1165.19177	445.89148	-126.87011	1085.40259	144.11711	-672.62518	1123.18884	313.13245	-137.58879	842.27948	71.72659	-349.89114	975.00311	189.23561	-399.84262	965.22455	304.87930	-278.59824	970.25659	459.90158	-585.17670	466.51871	376.52371	-108.20480	544.83380	300.90363	-709.67694	144.52332	345.98730	-112.47332	111.82661	341.09564	
869	8.680	-440.38834	1397.78833	2.35896	-414.85733	1662.99561	158.07867	-533.49261	1542.36462	123.92918	-327.30167	1491.39795	36.91439	-527.16589	1444.99622	307.09384	-250.72884	1402.97925	137.92992	-419.77182	1295.58740	194.58220	-316.68726	1437.14453	312.02206	-582.75024	1163.62744	443.05450	-133.75108	1084.56042	139.48544	-679.94757	1121.16235	310.05701	-143.95236	841.70087	66.49234	-357.62344	973.69781	185.03824	-408.63184	964.44330	301.08459	-285.51334	968.68042	456.61752	-592.38464	464.92734	374.70773	-112.91424	543.40564	297.65375	-716.68805	142.85065	345.47153	-112.30602	111.47186	341.17480	
870	8.690	-448.78827	1396.35339	-0.31939	-423.21170	1661.26770	155.94456	-541.77649	1540.86621	121.79715	-335.79602	1490.12964	33.40781	-533.13403	1442.53894	304.20584	-258.51559	1401.49817	134.67229	-427.65341	1294.07031	191.59277	-323.99527	1435.19165	308.84857	-590.17822	1161.40613	439.52832	-141.29398	1083.00879	135.14641	-687.77051	1120.26575	307.15820	-151.02130	840.90167	61.85836	-365.33719	972.05573	182.48233	-416.45139	962.68597	297.82037	-294.06946	966.95526	453.38538	-599.44904	463.25443	372.96942	-118.09909	541.95233	294.29822	-723.92548	140.50201	344.40619	-113.14527	110.63229	340.29425	
871	8.700	-457.02023	1395.30920	-3.23363	-431.61392	1659.87646	153.53712	-550.65167	1539.49146	119.21315	-344.17825	1489.12622	30.16486	-541.02783	1441.01831	301.49567	-266.78357	1400.34583	132.88461	-435.65735	1292.45459	188.95219	-332.12906	1433.56311	306.03085	-597.51758	1159.67480	436.31430	-148.91263	1082.29248	130.91566	-695.58569	1118.88672	303.91080	-158.16371	840.48553	56.68190	-373.50659	969.84125	179.31938	-423.68988	960.63446	295.22961	-301.58719	964.85919	450.29678	-606.60748	460.72168	371.33826	-123.49609	540.63934	291.63300	-730.05695	138.57982	343.02588	-113.45311	109.09154	338.82806	
872	8.710	-465.70401	1393.57092	-5.78866	-439.79745	1657.79712	150.73764	-559.50793	1537.85413	116.26623	-352.70511	1487.77759	27.56440	-548.98535	1439.26135	298.90640	-274.83691	1399.07556	129.19418	-443.62778	1290.76929	185.67802	-339.75198	1431.37720	302.82703	-605.21368	1157.47363	433.18939	-156.20114	1080.67993	126.23760	-703.24890	1117.16064	301.22711	-165.30147	839.35071	51.41621	-381.42303	968.55182	175.50203	-432.39133	958.09503	291.16211	-310.22504	963.56757	447.37332	-613.29456	458.06802	369.26379	-129.00488	538.95569	287.62125	-736.79077	135.10500	341.70908	-112.78526	108.29348	337.93167	
873	8.720	-474.65237	1392.57666	-9.25480	-448.33072	1656.19690	148.48099	-567.19867	1535.40442	114.54681	-361.62598	1486.18103	24.06834	-556.58972	1436.93140	295.99509	-283.30548	1397.74719	125.33601	-452.09085	1289.16614	182.33546	-347.71216	1429.45203	299.63397	-613.42963	1155.32788	430.12802	-164.20338	1079.67371	121.95858	-711.67682	1115.50757	298.25674	-172.22466	838.23938	46.88068	-390.28201	966.17780	172.37012	-441.39569	956.77606	287.86438	-319.24966	960.87317	443.92532	-619.76483	454.81369	367.65201	-134.87477	536.99323	284.42865	-743.34265	133.24959	341.31882	-113.84573	107.00806	335.99866	
874	8.730	-483.65411	1391.11975	-12.36790	-457.19440	1654.65552	146.17276	-576.86127	1534.31738	111.53882	-370.69229	1485.03394	21.56715	-564.87189	1435.19519	293.06396	-291.92322	1395.50378	122.45408	-460.60620	1287.41724	179.31479	-355.54846	1426.76184	295.82303	-621.84814	1153.27234	426.92978	-171.81966	1078.49121	117.85543	-719.50543	1113.43311	294.06656	-179.50478	837.47003	42.02853	-398.97333	964.32782	168.67882	-449.91135	955.04199	283.78995	-329.01407	958.93378	440.83383	-626.98022	452.23389	365.65491	-141.27271	534.80981	280.64737	-748.84033	129.75888	340.86298	-112.83133	107.57848	335.77267	
875	8.740	-493.08865	1389.54443	-15.42717	-466.45172	1652.73047	143.87408	-584.18506	1531.71826	110.58865	-379.69904	1483.47876	18.55062	-572.99866	1433.45605	290.46207	-300.56320	1394.13623	118.70049	-468.95139	1285.43665	175.99480	-363.51459	1424.45691	292.69022	-629.67017	1151.10913	423.55179	-179.31853	1076.74817	113.67968	-727.33984	1111.28931	290.62830	-186.30170	836.15424	36.63757	-408.31161	961.73511	165.32118	-460.00165	952.85590	280.63242	-339.07623	956.90533	437.63870	-633.27264	449.27612	363.42242	-147.45557	532.80231	276.87106	-754.21979	126.67413	339.88474	-112.64446	106.02601	334.70547	
876	8.750	-502.07468	1387.95264	-17.79665	-475.00482	1651.39722	141.24507	-594.59180	1530.82532	106.81161	-388.92136	1481.97534	14.69329	-581.26428	1431.43298	288.03128	-309.26782	1392.40125	115.53487	-477.72739	1283.99646	172.66046	-371.92661	1422.30017	289.80435	-638.54791	1149.00500	420.29901	-187.37546	1075.46094	109.45701	-736.56439	1109.68787	287.54980	-193.08472	835.38293	32.32460	-418.03870	959.22406	161.02998	-469.53558	950.15350	276.75012	-349.30386	954.41907	434.11060	-640.32867	446.93518	360.46677	-154.48691	530.52332	273.02835	-759.14844	122.73886	340.26663	-111.30486	104.68199	332.71939	
877	8.760	-511.80289	1387.07031	-20.80770	-484.15475	1649.94067	138.61227	-602.76086	1529.24402	105.70776	-398.69031	1480.84851	12.33067	-589.55328	1429.96948	285.46283	-317.86484	1390.60229	111.49924	-486.41782	1282.31836	169.06122	-380.19528	1420.29150	286.09335	-647.35156	1146.75024	417.02295	-194.94450	1073.92041	105.35670	-744.78680	1107.59875	283.36566	-200.17616	834.22095	28.23099	-428.49182	956.66150	157.65994	-480.32022	948.61676	272.64084	-359.09897	952.46338	430.88089	-648.07043	445.85010	357.30887	-161.37495	527.66168	269.15274	-762.77832	118.71925	340.75540	-110.76919	104.61649	332.49997	
878	8.770	-521.20154	1385.79114	-23.68750	-492.73355	1648.90625	135.41087	-613.06079	1528.43665	102.02269	-407.97824	1479.99329	8.37638	-597.58905	1429.07104	283.16071	-326.27997	1389.46680	107.35411	-495.31064	1281.13293	165.91475	-388.11624	1418.38940	282.18469	-655.98926	1144.42285	412.99860	-202.59346	1072.28491	101.60487	-753.65082	1105.67493	279.56998	-207.11977	832.64392	23.98777	-439.70502	954.86975	154.14653	-551.52802	990.38611	225.61993	-369.01001	950.88025	428.07697	-655.51617	445.80807	353.34607	-168.82547	524.98315	262.70126	-766.47626	116.51912	339.67188	-110.62218	103.91553	329.75159	
879	8.780	-531.27545	1385.04761	-26.65888	-501.74426	1647.91260	132.34940	-620.80933	1526.61084	100.47025	-417.18234	1478.47888	5.29315	-605.01221	1427.42920	280.81857	-335.22000	1387.51221	102.49409	-503.77634	1279.63684	162.03189	-395.89441	1416.45459	278.43164	-664.93689	1142.49390	409.11264	-210.71318	1070.84375	97.13055	-762.86725	1104.10156	275.67197	-214.31235	831.17322	19.51625	-451.12854	951.73401	150.96458	-562.26367	989.50458	222.69974	-379.50049	949.67297	424.73050	-662.30957	446.35135	348.35648	-177.06317	523.28564	259.11313	-768.60065	113.70128	340.59464	-110.20406	102.17835	328.20511	
880	8.790	-540.64862	1384.27466	-28.93347	-511.61505	1648.14331	129.52266	-629.50726	1525.89294	99.02288	-427.33673	1478.27063	1.54818	-612.03381	1426.90527	278.11578	-344.44995	1386.12012	98.21957	-512.82916	1278.88208	158.32448	-403.98306	1415.52991	274.40198	-674.31281	1140.77588	405.44547	-218.36348	1068.70142	93.62435	-771.46118	1102.33545	271.60663	-220.69872	829.45074	15.70309	-463.68616	949.38348	148.42604	-573.78595	988.31378	221.22432	-388.64615	948.78638	420.88239	-669.64618	447.89462	343.33990	-186.34810	520.63556	254.06303	-770.38306	111.90923	339.67053	-109.52489	102.03790	326.70889	
